name Walk9.mot
datacolumns 19
datarows 22
range 1.15000000 1.17100000
endheader

                time	   L_ground_force_vx	   L_ground_force_vy	   L_ground_force_vz	   L_ground_force_px	   L_ground_force_py	   L_ground_force_pz	   R_ground_force_vx	   R_ground_force_vy	   R_ground_force_vz	   R_ground_force_px	   R_ground_force_py	   R_ground_force_pz	   L_ground_torque_x	   L_ground_torque_y	   L_ground_torque_z	   R_ground_torque_x	   R_ground_torque_y	   R_ground_torque_z	
          1.15000000	          0.00000000	          0.00000000	          0.00000000	          0.00000000	          0.00000000	          0.00000000	          0.00000000	          0.00000000	          0.00000000	          0.00000000	          0.00000000	          0.00000000	          0.00000000	          0.00000000	          0.00000000	          0.00000000	          0.00000000	          0.00000000	
          1.15100000	          0.00000000	          0.00000000	          0.00000000	          0.00000000	          0.00000000	          0.00000000	          0.00000000	          0.00000000	          0.00000000	          0.00000000	          0.00000000	          0.00000000	          0.00000000	          0.00000000	          0.00000000	          0.00000000	          0.00000000	          0.00000000	
          1.15200000	          0.00000000	          0.00000000	          0.00000000	          0.00000000	          0.00000000	          0.00000000	          0.00000000	          0.00000000	          0.00000000	          0.00000000	          0.00000000	          0.00000000	          0.00000000	          0.00000000	          0.00000000	          0.00000000	          0.00000000	          0.00000000	
          1.15300000	          0.00000000	          0.00000000	          0.00000000	          0.00000000	          0.00000000	          0.00000000	          0.00000000	          0.00000000	          0.00000000	          0.00000000	          0.00000000	          0.00000000	          0.00000000	          0.00000000	          0.00000000	          0.00000000	          0.00000000	          0.00000000	
          1.15400000	          0.00000000	          0.00000000	          0.00000000	          0.00000000	          0.00000000	          0.00000000	          0.00000000	          0.00000000	          0.00000000	          0.00000000	          0.00000000	          0.00000000	          0.00000000	          0.00000000	          0.00000000	          0.00000000	          0.00000000	          0.00000000	
          1.15500000	          0.00000000	          0.00000000	          0.00000000	          0.00000000	          0.00000000	          0.00000000	          0.00000000	          0.00000000	          0.00000000	          0.00000000	          0.00000000	          0.00000000	          0.00000000	          0.00000000	          0.00000000	          0.00000000	          0.00000000	          0.00000000	
          1.15600000	          0.00000000	          0.00000000	          0.00000000	          0.00000000	          0.00000000	          0.00000000	          0.00000000	          0.00000000	          0.00000000	          0.00000000	          0.00000000	          0.00000000	          0.00000000	          0.00000000	          0.00000000	          0.00000000	          0.00000000	          0.00000000	
          1.15700000	         -3.60096152	         12.55977501	          0.53273108	         -0.29631333	          0.00000000	          0.03340263	          0.00000000	          0.00000000	          0.00000000	          0.00000000	          0.00000000	          0.00000000	          0.00000000	          0.06805168	          0.00000000	          0.00000000	          0.00000000	          0.00000000	
          1.15800000	         -5.27885694	         23.11375319	          0.73249177	         -0.29573574	          0.00000000	          0.03110367	          0.00000000	          0.00000000	          0.00000000	          0.00000000	          0.00000000	          0.00000000	          0.00000000	          0.07626472	          0.00000000	          0.00000000	          0.00000000	          0.00000000	
          1.15900000	         -7.09874300	         38.94448323	          0.82431300	         -0.29532469	          0.00000000	          0.02953338	          0.00000000	          0.00000000	          0.00000000	          0.00000000	          0.00000000	          0.00000000	          0.00000000	          0.08616965	          0.00000000	          0.00000000	          0.00000000	          0.00000000	
          1.16000000	         -9.15897634	         63.08793815	          0.64486745	         -0.29520585	          0.00000000	          0.02900375	          0.00000000	          0.00000000	          0.00000000	          0.00000000	          0.00000000	          0.00000000	          0.00000000	          0.11734977	          0.00000000	          0.00000000	          0.00000000	          0.00000000	
          1.16100000	        -11.56484307	         99.18900760	         -0.06542459	         -0.29528721	          0.00000000	          0.02935704	          0.00000000	          0.00000000	          0.00000000	          0.00000000	          0.00000000	          0.00000000	          0.00000000	          0.19101391	          0.00000000	          0.00000000	          0.00000000	          0.00000000	
          1.16200000	        -14.27126572	        150.23624917	         -1.65584856	         -0.29541696	          0.00000000	          0.03010482	          0.00000000	          0.00000000	          0.00000000	          0.00000000	          0.00000000	          0.00000000	          0.00000000	          0.31744562	          0.00000000	          0.00000000	          0.00000000	          0.00000000	
          1.16300000	        -17.02152526	        217.02778036	         -4.53715223	         -0.29551000	          0.00000000	          0.03085250	          0.00000000	          0.00000000	          0.00000000	          0.00000000	          0.00000000	          0.00000000	          0.00000000	          0.48912521	          0.00000000	          0.00000000	          0.00000000	          0.00000000	
          1.16400000	        -19.45610098	        296.85931884	         -9.12721395	         -0.29553511	          0.00000000	          0.03142356	          0.00000000	          0.00000000	          0.00000000	          0.00000000	          0.00000000	          0.00000000	          0.00000000	          0.68947822	          0.00000000	          0.00000000	          0.00000000	          0.00000000	
          1.16500000	        -21.32711571	        383.31389061	        -15.71911881	         -0.29548777	          0.00000000	          0.03180859	          0.00000000	          0.00000000	          0.00000000	          0.00000000	          0.00000000	          0.00000000	          0.00000000	          0.90562362	          0.00000000	          0.00000000	          0.00000000	          0.00000000	
          1.16600000	        -22.63348579	        467.68093221	        -24.30556031	         -0.29537336	          0.00000000	          0.03209059	          0.00000000	          0.00000000	          0.00000000	          0.00000000	          0.00000000	          0.00000000	          0.00000000	          1.12234710	          0.00000000	          0.00000000	          0.00000000	          0.00000000	
          1.16700000	        -23.60158361	        541.42965080	        -34.50501171	         -0.29519736	          0.00000000	          0.03237793	          0.00000000	          0.00000000	          0.00000000	          0.00000000	          0.00000000	          0.00000000	          0.00000000	          1.30976849	          0.00000000	          0.00000000	          0.00000000	          0.00000000	
          1.16800000	        -24.57496489	        598.45516955	        -45.66294981	         -0.29496332	          0.00000000	          0.03274257	          0.00000000	          0.00000000	          0.00000000	          0.00000000	          0.00000000	          0.00000000	          0.00000000	          1.43344623	          0.00000000	          0.00000000	          0.00000000	          0.00000000	
          1.16900000	        -25.89040543	        636.18950618	        -57.03130526	         -0.29467054	          0.00000000	          0.03319193	          0.00000000	          0.00000000	          0.00000000	          0.00000000	          0.00000000	          0.00000000	          0.00000000	          1.47780453	          0.00000000	          0.00000000	          0.00000000	          0.00000000	
          1.17000000	        -27.78760539	        655.45978398	        -67.91091012	         -0.29431193	          0.00000000	          0.03369658	          0.00000000	          0.00000000	          0.00000000	          0.00000000	          0.00000000	          0.00000000	          0.00000000	          1.45242832	          0.00000000	          0.00000000	          0.00000000	          0.00000000	
          1.17100000	        -30.36550450	        659.52073377	        -77.75162639	         -0.29388003	          0.00000000	          0.03422848	          0.00000000	          0.00000000	          0.00000000	          0.00000000	          0.00000000	          0.00000000	          0.00000000	          1.37998913	          0.00000000	          0.00000000	          0.00000000	          0.00000000	
